<svg width="737" height="825" viewBox="0 0 737 825" fill="none" xmlns="http://www.w3.org/2000/svg">
<g clip-path="url(#clip0_217_3519)">
<rect width="737" height="825" rx="29" fill="#282B4C"/>
<rect width="737" height="825" rx="29" fill="url(#paint0_linear_217_3519)" fill-opacity="0.2"/>
<g clip-path="url(#clip1_217_3519)">
<path d="M250 440.812C249.5 441.026 249.124 440.965 248.78 440.965C242.65 440.965 236.489 440.965 230.359 440.995C229.514 440.995 229.045 440.72 228.638 440.015C220.694 427.084 212.719 414.153 204.806 401.191C204.149 400.149 203.524 399.689 202.241 399.751C199.489 399.843 196.768 399.781 194.016 399.781C192.577 399.781 192.765 399.659 192.765 400.976C192.765 407.105 192.765 413.233 192.765 419.392C192.765 426.011 192.765 432.63 192.765 439.249C192.765 439.494 192.765 439.739 192.765 439.984C192.765 441.026 192.827 440.995 191.795 440.995C190.701 440.995 189.575 440.995 188.48 440.995C184.414 440.995 180.379 440.995 176.314 440.995C174.844 440.995 175.063 441.149 175.031 439.678C175.031 439.586 175.031 439.525 175.031 439.433C175 407.442 175 375.482 175 343.521C175 342.02 175 342.02 176.564 342.02C188.668 342.02 200.803 341.959 212.907 342.051C219.443 342.112 225.636 343.675 231.203 347.137C238.365 351.611 242.4 358.077 243.557 366.289C244.308 371.713 243.87 377.014 241.806 382.131C238.96 389.179 233.736 393.959 226.668 396.87C225.292 397.452 223.853 397.881 222.383 398.433C231.578 412.559 240.774 426.624 250 440.812ZM192.734 370.916C192.734 374.654 192.734 378.362 192.734 382.1C192.734 383.142 192.577 383.204 193.766 383.204C199.458 383.204 205.15 383.204 210.842 383.204C212.5 383.204 214.126 383.05 215.721 382.683C220.444 381.61 224.854 378.852 225.542 372.417C226.136 366.595 223.697 361.386 216.847 359.394C215.033 358.873 213.188 358.598 211.28 358.598C205.432 358.598 199.583 358.598 193.703 358.598C192.765 358.598 192.734 358.628 192.734 359.609C192.734 363.378 192.734 367.147 192.734 370.916Z" fill="white"/>
<path d="M521.059 374.789C521.059 374.091 521.059 373.667 521.059 373.242C521.059 361.93 521.059 350.617 521.059 339.305C521.059 337.94 520.809 338 522.468 338C527.194 338 531.889 338 536.616 338C536.897 338 537.179 338 537.461 338C537.805 338 537.993 338.122 537.993 338.486C537.993 338.759 537.993 339.032 537.993 339.305C537.993 371.968 537.993 404.663 537.993 437.327C537.993 438.843 538.181 438.631 536.616 438.631C531.889 438.631 527.194 438.631 522.468 438.631C520.84 438.631 521.059 438.813 521.059 437.205C521.059 435.022 521.059 432.838 521.059 430.594C520.527 430.654 520.277 431.049 519.995 431.322C516.333 434.658 512.17 437.205 507.35 438.6C493.202 442.695 476.832 437.842 468.412 423.557C465.689 418.948 464.124 413.974 463.435 408.727C462.496 401.6 463.028 394.624 465.501 387.83C468.537 379.46 473.858 372.909 482.09 368.723C488.257 365.599 494.861 364.629 501.747 365.387C508.852 366.145 514.862 369.118 520.027 373.819C520.277 374.091 520.559 374.304 521.059 374.789ZM521.341 402.297C521.404 399.052 520.778 395.625 519.275 392.38C516.051 385.404 510.574 381.158 502.655 380.551C494.454 379.915 488.069 383.16 483.812 390.014C479.305 397.293 479.367 407.726 483.781 415.065C491.418 427.803 510.136 427.925 517.929 415.308C520.371 411.396 521.372 407.119 521.341 402.297Z" fill="white"/>
<path d="M359.102 375.64C360.072 374.804 360.949 374 361.856 373.257C368.147 368.088 375.409 365.797 383.547 366.014C397.287 366.385 409.15 374.681 414.283 388.423C416.63 394.706 417.35 401.206 416.849 407.892C416.38 414.144 414.815 420.087 411.622 425.565C406.427 434.448 398.789 440.082 388.523 441.846C377.725 443.703 368.147 441.041 360.072 433.582C359.79 433.303 359.477 433.025 359.196 432.777C359.133 432.808 359.071 432.808 359.039 432.839C359.008 432.87 358.977 432.901 358.977 432.932C358.977 433.025 358.945 433.086 358.945 433.179C358.945 444.724 358.914 456.269 358.914 467.814C358.914 467.845 358.883 467.907 358.851 468C353.28 468 347.678 468 342.106 468C341.95 467.536 342.012 467.102 342.012 466.638C342.012 434.077 342.012 401.516 342.012 368.954C342.012 368.8 342.012 368.645 342.012 368.459C342.012 367.407 342.012 367.407 343.077 367.407C347.991 367.407 352.905 367.407 357.819 367.407C358.914 367.407 358.945 367.407 358.945 368.552C358.945 370.533 358.945 372.514 358.945 374.495C358.945 374.804 358.851 375.176 359.102 375.64ZM378.977 426.772C380.01 426.71 381.043 426.679 382.044 426.525C388.774 425.441 393.782 421.851 396.786 415.846C400.511 408.325 400.574 400.556 397.005 392.973C393.813 386.225 388.304 382.264 380.73 381.707C372.154 381.088 365.518 384.647 361.512 392.199C357.443 399.937 357.443 407.985 361.324 415.815C364.861 422.903 370.964 426.463 378.977 426.772Z" fill="white"/>
<path d="M330.306 417.994C329.986 418.683 329.73 419.252 329.474 419.821C327.205 424.494 324.231 428.717 320.075 432.162C315.599 435.876 310.388 438.092 304.57 439.141C297.92 440.339 291.238 440.369 284.685 438.691C272.024 435.456 263.489 427.998 259.396 416.316C255.784 405.982 256.199 395.649 261.027 385.704C266.078 375.31 274.742 368.841 286.731 366.714C297.249 364.857 307.127 366.564 315.919 372.525C322.057 376.718 326.118 382.379 328.707 388.999C330.402 393.312 331.329 397.805 331.744 402.388C331.904 404.036 331.968 405.683 332 407.33C332 408.229 332 408.229 331.073 408.259C330.817 408.259 330.561 408.259 330.306 408.259C312.658 408.259 294.979 408.259 277.331 408.259C276.884 408.259 276.436 408.259 275.957 408.259C275.861 409.487 276.181 410.535 276.468 411.584C277.843 416.676 280.72 420.809 285.708 423.325C291.558 426.261 297.6 426.44 303.707 424.014C307.415 422.517 310.101 419.911 311.859 416.526C312.179 415.927 312.466 415.717 313.17 415.807C318.828 416.526 324.455 417.245 330.306 417.994ZM275.797 395.709C278.035 395.948 311.891 395.858 312.786 395.619C311.028 386.872 303.163 380.432 294.244 380.462C284.397 380.522 277.3 387.861 275.797 395.709Z" fill="white"/>
<path d="M431.004 403.046C431.004 391.186 431.004 379.326 431.004 367.497C431.004 367.217 431.004 366.937 431.004 366.657C430.97 366.19 431.17 365.972 431.702 366.003C432.434 366.034 433.166 366.003 433.931 366.003C438.588 366.003 443.245 366.003 447.902 366.003C448.967 366.003 449 366.003 449 366.999C449 370.019 449 373.038 449 376.026C449 396.758 449 417.49 449 438.222C449 438.502 449 438.783 449 439.063C448.967 439.966 448.967 439.997 448.002 439.997C442.746 439.997 437.457 439.997 432.201 439.997C430.97 439.997 431.037 440.121 431.037 438.845C431.037 428.977 431.037 419.14 431.037 409.272C431.004 407.187 431.004 405.132 431.004 403.046Z" fill="white"/>
<path d="M437.529 359C431.579 359 426.971 354.437 427 348.5C427 342.651 431.638 338.029 437.471 338C443.362 337.971 448.029 342.651 448 348.559C447.971 354.437 443.421 359 437.529 359Z" fill="white"/>
<path d="M445.529 474.806C445.096 474.837 444.951 475.144 444.749 475.359C441.397 478.767 434.287 478.184 431.917 472.258C430.559 468.819 430.675 465.35 432.495 462.065C435.125 457.306 441.599 456.784 444.807 460.192C444.98 460.376 445.125 460.653 445.529 460.653C445.703 460.131 445.616 459.578 445.616 459.056C445.616 458.534 445.818 458.319 446.281 458.35C447.003 458.381 447.726 458.35 448.448 458.35C448.824 458.35 449.026 458.503 448.997 458.933C448.997 459.148 448.997 459.332 448.997 459.547C448.997 464.92 448.997 470.324 448.997 475.697C448.997 476.894 448.853 478.091 448.564 479.258C447.61 483.004 445.356 485.276 441.714 485.859C439.229 486.258 436.888 485.828 434.778 484.324C433.247 483.219 432.264 481.684 431.628 479.872C431.484 479.412 431.571 479.166 432.033 479.135C432.438 479.074 432.871 479.043 433.276 478.982C433.767 478.92 434.258 478.736 434.721 478.828C435.27 478.92 435.241 479.657 435.472 480.056C435.877 480.701 436.31 481.285 436.917 481.714C440.298 484.201 444.662 482.298 445.414 477.999C445.587 476.925 445.616 475.881 445.529 474.806ZM440.038 461.359C437.813 461.359 436.05 462.587 435.125 464.767C434.518 466.21 434.403 467.683 434.692 469.219C435.125 471.552 436.83 473.517 438.882 473.916C441.252 474.407 443.477 473.455 444.633 471.306C445.905 468.942 445.934 466.486 444.633 464.091C443.622 462.28 442.061 461.359 440.038 461.359Z" fill="white"/>
<path d="M422.801 475.994C422.637 476.246 422.539 476.529 422.309 476.717C419.685 479.14 415.617 479.706 412.402 478.07C409.876 476.812 408.826 474.736 409.023 472.062C409.187 469.765 410.762 467.972 413.255 467.123C414.797 466.62 416.371 466.588 417.946 466.525C419.389 466.462 420.866 466.462 422.309 466.462C422.899 466.462 423.129 466.274 423.129 465.676C423.227 462.939 421.194 460.989 418.143 461.02C416.142 461.052 413.977 461.838 413.386 464.072C413.288 464.449 413.058 464.606 412.664 464.606C411.779 464.606 410.86 464.606 409.975 464.606C409.45 464.606 409.286 464.355 409.384 463.914C409.679 462.216 410.467 460.8 411.91 459.762C414.83 457.623 420.275 457.403 423.392 459.259C425.885 460.737 426.902 463.002 426.934 465.739C426.967 468.444 426.934 471.181 426.934 473.886C426.934 475.176 426.967 476.434 427 477.724C427 478.573 427 478.573 426.081 478.605C425.491 478.605 424.868 478.573 424.277 478.605C423.523 478.668 423.293 478.322 423.26 477.693C423.227 477.221 423.195 476.717 423.162 476.246C423.031 476.12 422.932 476.057 422.801 475.994ZM416.962 475.742C420.341 475.585 422.834 473.823 423.129 470.426C423.227 469.419 423.162 469.325 422.145 469.388C420.308 469.451 418.471 469.577 416.634 469.671C415.978 469.703 415.387 469.891 414.764 470.143C413.616 470.615 412.993 471.433 412.96 472.597C412.927 473.76 413.485 474.641 414.567 475.207C415.354 475.616 416.207 475.648 416.962 475.742Z" fill="white"/>
<path d="M466.166 476.145C465.611 476.27 465.448 476.647 465.154 476.867C462.508 479.189 458.36 479.692 455.225 477.997C452.84 476.71 451.828 474.701 452.024 472.127C452.22 469.584 453.755 468.015 456.172 467.167C457.772 466.602 459.438 466.602 461.104 466.54C462.475 466.477 463.847 466.477 465.219 466.477C465.84 466.477 466.003 466.289 466.036 465.692C466.232 462.491 463.553 460.796 460.483 461.078C458.523 461.266 456.956 462.082 456.4 464.091C456.302 464.468 456.041 464.625 455.649 464.625C454.8 464.625 453.951 464.656 453.102 464.625C452.383 464.594 452.285 464.499 452.416 463.777C452.742 462.051 453.592 460.639 455.127 459.603C456.041 458.975 457.054 458.567 458.164 458.316C460.026 457.939 461.888 457.876 463.749 458.253C467.407 459.006 469.759 461.737 469.824 465.347C469.857 468.8 469.857 472.252 469.857 475.705C469.857 476.459 469.857 477.18 469.988 477.902C470.053 478.31 469.857 478.499 469.432 478.499C468.583 478.499 467.734 478.499 466.885 478.499C466.428 478.499 466.297 478.279 466.264 477.871C466.232 477.4 466.199 476.804 466.166 476.145ZM463.619 469.427C461.92 469.584 460.059 469.49 458.295 469.961C456.727 470.401 455.943 471.436 456.008 472.817C456.074 474.167 457.021 475.203 458.523 475.548C459.601 475.799 460.646 475.737 461.692 475.517C463.913 475.046 465.709 473.225 466.003 471.154C466.264 469.396 466.199 469.333 464.403 469.396C464.174 469.427 463.945 469.427 463.619 469.427Z" fill="white"/>
<path d="M526.621 473.717C527.616 471.161 528.611 468.668 529.606 466.144C530.568 463.714 531.531 461.284 532.459 458.854C532.692 458.286 532.957 457.971 533.654 458.002C534.715 458.065 535.81 458.002 536.838 458.002C537.17 458.381 536.905 458.633 536.805 458.886C533.09 467.595 529.341 476.305 525.659 485.014C525.36 485.74 524.995 486.055 524.133 485.992C523.104 485.929 522.076 485.961 521.081 485.961C520.815 485.456 521.114 485.14 521.247 484.825C522.076 482.963 522.939 481.101 523.834 479.302C524.199 478.577 524.232 477.977 523.901 477.22C521.346 471.256 518.858 465.292 516.337 459.327C515.773 458.002 515.806 458.002 517.299 458.002C517.963 458.002 518.593 458.002 519.256 458.002C520.318 458.002 520.318 458.002 520.716 459.012C522.507 463.619 524.299 468.226 526.057 472.833C526.19 473.086 526.256 473.37 526.621 473.717Z" fill="white"/>
<path d="M477.051 460.787C478.848 459.027 480.812 458.067 483.208 458.003C487.201 457.907 489.93 459.987 490.729 463.73C490.895 464.562 491.028 465.362 490.995 466.226C490.995 470.065 490.995 473.936 490.995 477.776C490.995 478.864 490.995 478.896 489.863 478.896C489.464 478.896 489.065 478.896 488.699 478.896C486.968 478.896 487.135 479.024 487.135 477.456C487.135 474.064 487.135 470.673 487.135 467.282C487.135 466.706 487.135 466.13 487.035 465.522C486.635 463.09 485.57 461.843 483.707 461.523C481.278 461.107 479.048 462.066 477.883 463.954C477.218 465.042 476.951 466.194 476.985 467.442C476.985 470.865 476.985 474.288 476.985 477.744C476.985 478.896 476.985 478.896 475.753 478.896C474.921 478.896 473.89 479.215 473.357 478.736C472.725 478.192 473.124 477.168 473.124 476.336C473.091 470.865 473.124 465.362 473.124 459.891C473.124 459.603 473.124 459.315 473.124 459.027C473.091 458.547 473.324 458.323 473.823 458.355C473.99 458.355 474.156 458.355 474.356 458.355C475.188 458.419 476.153 458.067 476.785 458.515C477.284 458.931 476.752 459.891 477.051 460.787Z" fill="white"/>
<path d="M495 468.396C495 465.319 495.871 462.588 498.094 460.421C501.579 457.061 507.737 457.218 510.952 460.767C511.823 461.74 512.424 462.902 512.844 464.158C513.115 464.974 513.055 465.068 512.274 465.194C511.703 465.288 511.102 465.382 510.531 465.445C509.42 465.571 509.48 465.539 509.119 464.629C508.789 463.812 508.338 463.121 507.677 462.556C505.364 460.61 501.789 461.112 500.017 463.624C498.184 466.199 498.124 470.563 499.897 473.169C501.128 474.959 502.841 475.744 504.914 475.555C506.926 475.367 508.338 474.237 509.149 472.29C509.54 471.348 509.54 471.379 510.531 471.536C511.042 471.631 511.553 471.662 512.063 471.756C513.145 471.945 513.145 471.976 512.784 472.981C511.763 475.869 509.87 477.816 507.016 478.632C503.051 479.763 498.875 478.224 496.682 474.865C495.541 473.043 495 470.971 495 468.396Z" fill="white"/>
<path d="M552.97 356C548.22 356 544.03 351.81 544 347.059C544 342.279 548.249 338 553 338C557.721 338 562.029 342.397 562 347.118C561.941 351.839 557.692 356 552.97 356ZM552.941 354.849C557.102 354.879 560.79 351.19 560.82 347.059C560.849 342.898 557.19 339.21 553.029 339.18C548.898 339.151 545.151 342.839 545.151 346.97C545.121 351.131 548.81 354.849 552.941 354.849Z" fill="white"/>
</g>
</g>
<defs>
<linearGradient id="paint0_linear_217_3519" x1="368.5" y1="0" x2="368.5" y2="825" gradientUnits="userSpaceOnUse">
<stop stop-color="#977644"/>
<stop offset="1"/>
</linearGradient>
<clipPath id="clip0_217_3519">
<rect width="737" height="825" fill="white"/>
</clipPath>
<clipPath id="clip1_217_3519">
<rect width="387" height="148" fill="white" transform="translate(175 338)"/>
</clipPath>
</defs>
</svg>
